<?xml version="1.0" encoding="utf-8"?>
<!DOCTYPE svg PUBLIC "-//W3C//DTD SVG 1.1//EN" "http://www.w3.org/Graphics/SVG/1.1/DTD/svg11.dtd">
<svg version="1.1" xmlns="http://www.w3.org/2000/svg" xmlns:xlink="http://www.w3.org/1999/xlink" x="0px" y="0px" width="25px"
	 height="25px" viewBox="0 0 25 25" enable-background="new 0 0 25 25" xml:space="preserve">
<g id="Layer_1">
	<g>
		<path fill="#7C8587" d="M24,1v23H1V1H24 M25,0H0v25h25V0L25,0z"/>
	</g>
	<rect x="2.27" y="13.64" fill="#979FA2" width="11.37" height="4.54"/>
</g>
<g id="Layer_3" display="none">
	<g display="inline">
		<g id="XMLID_4_">
			<g>
				<rect x="11.36" y="15.91" fill="#979FA2" width="2.28" height="2.27"/>
				<rect x="11.36" y="13.64" fill="#979FA2" width="2.28" height="2.27"/>
				<rect x="9.09" y="15.91" fill="#979FA2" width="2.27" height="2.27"/>
				<rect x="9.09" y="13.64" fill="#979FA2" width="2.27" height="2.27"/>
				<rect x="6.82" y="15.91" fill="#979FA2" width="2.27" height="2.27"/>
				<rect x="6.82" y="13.64" fill="#979FA2" width="2.27" height="2.27"/>
				<rect x="4.55" y="15.91" fill="#979FA2" width="2.27" height="2.27"/>
				<rect x="4.55" y="13.64" fill="#979FA2" width="2.27" height="2.27"/>
				<rect x="2.27" y="15.91" fill="#979FA2" width="2.28" height="2.27"/>
				<rect x="2.27" y="13.64" fill="#979FA2" width="2.28" height="2.27"/>
			</g>
		</g>
	</g>
</g>
<g id="Layer_2">
</g>
</svg>
