<?xml version="1.0" standalone="no"?>
<!DOCTYPE svg PUBLIC "-//W3C//DTD SVG 1.1//EN" "http://www.w3.org/Graphics/SVG/1.1/DTD/svg11.dtd">
<svg width="100%" height="100%" viewBox="0 0 692 440" version="1.1" xmlns="http://www.w3.org/2000/svg" xmlns:xlink="http://www.w3.org/1999/xlink" xml:space="preserve" style="fill-rule:evenodd;clip-rule:evenodd;stroke-linejoin:round;stroke-miterlimit:1.41421;">
    <g transform="matrix(27.2871,0,0,27.2871,-472.724,-598.876)">
        <g id="Shape">
            <path id="Layer1" d="M42.684,31.153L42.684,28.847L40.378,28.847L40.378,26.541L38.072,26.541L38.072,28.847L35.766,28.847L35.766,31.153L38.072,31.153L38.072,33.459L40.378,33.459L40.378,31.153L42.684,31.153ZM25.388,28.847L25.388,31.614L30,31.614C29.769,32.767 28.616,35.074 25.388,35.074C22.62,35.074 20.429,32.767 20.429,30C20.429,27.233 22.62,24.926 25.388,24.926C27.002,24.926 28.04,25.618 28.616,26.195L30.807,24.119C29.423,22.735 27.578,21.928 25.388,21.928C20.89,21.928 17.316,25.503 17.316,30C17.316,34.497 20.89,38.072 25.388,38.072C30,38.072 33.113,34.843 33.113,30.231C33.113,29.654 33.113,29.308 32.998,28.847L25.388,28.847L25.388,28.847Z" style="fill:black;fill-rule:nonzero;"/>
        </g>
    </g>
</svg>
