<?xml version="1.0" encoding="utf-8"?>
<!DOCTYPE svg PUBLIC "-//W3C//DTD SVG 1.1//EN" "http://www.w3.org/Graphics/SVG/1.1/DTD/svg11.dtd">
<svg version="1.1" xmlns="http://www.w3.org/2000/svg" xmlns:xlink="http://www.w3.org/1999/xlink" x="0px" y="0px" width="25px"
	 height="25px" viewBox="0 0 25 25" enable-background="new 0 0 25 25" xml:space="preserve">
    <g transform="matrix(0.141799,0,0,0.141799,-57.8734,2.29045)">
        <g id="Layer1">
            <path d="M546.995,122.707L525.651,122.707L525.651,89.288C525.651,81.319 525.505,71.067 514.552,71.067C503.439,71.067 501.733,79.748 501.733,88.711L501.733,122.707L480.394,122.707L480.394,53.986L500.879,53.986L500.879,63.376L501.165,63.376C504.017,57.973 510.983,52.277 521.374,52.277C543.002,52.277 546.995,66.512 546.995,85.013L546.995,122.707ZM456.322,44.592C449.477,44.592 443.936,39.042 443.936,32.206C443.936,25.375 449.477,19.826 456.322,19.826C463.15,19.826 468.699,25.375 468.699,32.206C468.699,39.042 463.15,44.592 456.322,44.592ZM466.997,122.707L445.638,122.707L445.638,53.986L466.997,53.986L466.997,122.707ZM557.632,0L434.916,0C429.052,0 424.287,4.648 424.287,10.377L424.287,133.61C424.287,139.345 429.052,144 434.916,144L557.632,144C563.506,144 568.291,139.345 568.291,133.61L568.291,10.377C568.291,4.648 563.506,0 557.632,0Z" style="fill:rgb(180,178,168);fill-rule:nonzero;"/>
        </g>
    </g>
</svg>
