<svg xmlns="http://www.w3.org/2000/svg" width="20" height="20"><g fill="#00C7C2"><path d="M2.929 2.929c-1.889 1.889-2.929 4.4-2.929 7.071s1.04 5.182 2.929 7.071c1.889 1.889 4.4 2.929 7.071 2.929s5.182-1.04 7.071-2.929c1.889-1.889 2.929-4.4 2.929-7.071 0-2.279-.747-4.425-2.16-6.208-1.125-1.419-2.608-2.503-4.3-3.146v2.121c1.076.529 2.034 1.301 2.774 2.235 1.137 1.434 1.738 3.163 1.738 4.998 0 4.44-3.612 8.053-8.053 8.053s-8.052-3.613-8.052-8.053c0-3.979 2.967-7.405 6.902-7.97l.177-.026v7.996c0 .537.437.974.973.974.537 0 .974-.437.974-.974v-10h-.973c-2.671 0-5.182 1.04-7.071 2.929zM5.487 6.77c-.537 0-.974.437-.974.973v2.257c0 3.025 2.461 5.487 5.487 5.487s5.487-2.461 5.487-5.487v-2.257c0-.537-.437-.973-.974-.973-.537 0-.973.437-.973.973v2.257c0 1.951-1.588 3.54-3.54 3.54s-3.54-1.589-3.54-3.54v-2.257c0-.537-.436-.973-.973-.973z"/></g></svg>