<?xml version="1.0" encoding="utf-8"?>
<!DOCTYPE svg PUBLIC "-//W3C//DTD SVG 1.1//EN" "http://www.w3.org/Graphics/SVG/1.1/DTD/svg11.dtd">
<svg version="1.1" xmlns="http://www.w3.org/2000/svg" xmlns:xlink="http://www.w3.org/1999/xlink" x="0px" y="0px" width="25px"
	 height="25px" viewBox="0 0 25 25" enable-background="new 0 0 25 25" xml:space="preserve">
    <g id="Layer1" transform="matrix(0.657727,0,0,0.657727,0.675379,0.660582)">
        <path d="M17.978,1.69C8.97,1.69 1.668,8.993 1.668,18.001C1.668,24.91 5.967,30.812 12.034,33.189C11.892,31.898 11.763,29.919 12.091,28.51C12.387,27.237 14.003,20.403 14.003,20.403C14.003,20.403 13.516,19.426 13.516,17.981C13.516,15.713 14.83,14.02 16.467,14.02C17.858,14.02 18.531,15.065 18.531,16.318C18.531,17.717 17.639,19.809 17.18,21.748C16.795,23.372 17.994,24.695 19.595,24.695C22.494,24.695 24.722,21.639 24.722,17.227C24.722,13.321 21.916,10.591 17.909,10.591C13.269,10.591 10.545,14.072 10.545,17.669C10.545,19.071 11.085,20.574 11.758,21.391C11.892,21.553 11.911,21.694 11.872,21.859C11.748,22.374 11.473,23.482 11.418,23.709C11.347,24.007 11.182,24.071 10.873,23.927C8.836,22.979 7.562,20.001 7.562,17.608C7.562,12.463 11.301,7.738 18.339,7.738C23.997,7.738 28.394,11.77 28.394,17.158C28.394,22.779 24.85,27.303 19.93,27.303C18.278,27.303 16.724,26.445 16.192,25.43C16.192,25.43 15.374,28.544 15.176,29.308C14.808,30.724 13.814,32.5 13.149,33.583C14.675,34.056 16.297,34.311 17.978,34.311C26.986,34.311 34.288,27.008 34.288,18.001C34.288,8.993 26.986,1.69 17.978,1.69Z" style="fill:rgb(172,169,159);fill-rule:nonzero;"/>
    </g>
</svg>
