<?xml version="1.0" encoding="UTF-8" standalone="no"?><!DOCTYPE svg PUBLIC "-//W3C//DTD SVG 1.1//EN" "http://www.w3.org/Graphics/SVG/1.1/DTD/svg11.dtd"><svg width="50px" height="50px" viewBox="0 0 50 50" version="1.1" xmlns="http://www.w3.org/2000/svg" xmlns:xlink="http://www.w3.org/1999/xlink" xml:space="preserve" style="fill-rule:evenodd;clip-rule:evenodd;stroke-linejoin:round;stroke-miterlimit:1.41421;"><path d="M8.903,8.929c-4.227,4.225 -6.553,9.844 -6.553,15.82c0,5.976 2.326,11.595 6.553,15.82c4.225,4.226 9.844,6.553 15.82,6.553c5.977,0 11.596,-2.327 15.822,-6.553c4.225,-4.225 6.552,-9.844 6.552,-15.82c0,-5.099 -1.671,-9.901 -4.832,-13.89c-2.516,-3.174 -5.835,-5.601 -9.621,-7.037l0,4.744c2.407,1.184 4.55,2.91 6.207,5.001c2.543,3.209 3.889,7.076 3.889,11.182c0,9.934 -8.082,18.017 -18.017,18.017c-9.934,0 -18.016,-8.083 -18.016,-18.017c0,-8.902 6.639,-16.568 15.443,-17.832l0.396,-0.058l0,17.889c0,1.202 0.977,2.179 2.177,2.179c1.202,0 2.179,-0.977 2.179,-2.179l0,-22.373l-2.179,0c-5.976,0 -11.595,2.327 -15.82,6.554" style="fill:#000;fill-opacity:0.0470588;fill-rule:nonzero;"/><path d="M14.626,17.522c-1.202,0 -2.179,0.977 -2.179,2.178l0,5.049c0,6.769 5.508,12.276 12.276,12.276c6.769,0 12.277,-5.507 12.277,-12.276l0,-5.049c0,-1.201 -0.977,-2.178 -2.179,-2.178c-1.202,0 -2.179,0.977 -2.179,2.178l0,5.049c0,4.366 -3.552,7.919 -7.919,7.919c-4.366,0 -7.919,-3.553 -7.919,-7.919l0,-5.049c0,-1.201 -0.977,-2.178 -2.178,-2.178" style="fill:#000;fill-opacity:0.0470588;fill-rule:nonzero;"/></svg>
