<?xml version="1.0" encoding="utf-8"?>
<!DOCTYPE svg PUBLIC "-//W3C//DTD SVG 1.1//EN" "http://www.w3.org/Graphics/SVG/1.1/DTD/svg11.dtd">
<svg version="1.1" xmlns="http://www.w3.org/2000/svg" xmlns:xlink="http://www.w3.org/1999/xlink" x="0px" y="0px" width="25px"
	 height="25px" viewBox="0 0 25 25" enable-background="new 0 0 25 25" xml:space="preserve">
    <g id="Layer1" transform="matrix(0.0527481,0,0,0.0527481,-20.9756,-16.0103)">
        <path d="M736.18,577.626C730.969,575.018 705.349,562.413 700.572,560.672C695.796,558.933 692.322,558.065 688.848,563.28C685.374,568.496 675.387,580.235 672.347,583.713C669.308,587.19 666.268,587.627 661.057,585.017C655.846,582.409 639.055,576.907 619.151,559.152C603.66,545.334 593.201,528.27 590.162,523.053C587.122,517.836 589.837,515.016 592.446,512.418C594.791,510.083 597.658,506.331 600.263,503.288C602.869,500.246 603.737,498.071 605.474,494.595C607.211,491.116 606.343,488.074 605.039,485.466C603.737,482.858 593.315,457.207 588.973,446.772C584.743,436.612 580.447,437.988 577.248,437.827C574.212,437.676 570.734,437.644 567.261,437.644C563.787,437.644 558.141,438.948 553.364,444.164C548.588,449.381 535.126,461.989 535.126,487.637C535.126,513.288 553.798,538.066 556.404,541.544C559.01,545.023 593.149,597.657 645.425,620.229C657.857,625.599 667.564,628.805 675.132,631.206C687.615,635.173 698.975,634.613 707.954,633.271C717.966,631.776 738.785,620.666 743.128,608.494C747.47,596.319 747.47,585.886 746.167,583.713C744.865,581.539 741.391,580.235 736.18,577.626M641.098,707.451L641.028,707.451C609.923,707.439 579.415,699.082 552.801,683.289L546.471,679.532L480.865,696.742L498.376,632.776L494.255,626.217C476.903,598.619 467.738,566.721 467.752,533.967C467.79,438.394 545.552,360.638 641.167,360.638C687.467,360.654 730.989,378.708 763.718,411.474C796.445,444.238 814.458,487.79 814.44,534.107C814.401,629.688 736.64,707.451 641.098,707.451M788.626,386.577C749.251,347.156 696.887,325.437 641.096,325.414C526.143,325.414 432.585,418.966 432.539,533.954C432.524,570.712 442.127,606.589 460.378,638.218L430.791,746.289L541.349,717.288C571.811,733.903 606.108,742.661 641.013,742.672L641.099,742.672C756.04,742.672 849.606,649.111 849.653,534.121C849.674,478.395 828.001,425.997 788.626,386.577" style="fill:rgb(172,169,159);"/>
    </g>
</svg>
